<svg width="1182" height="950" viewBox="0 0 1182 950" fill="none" xmlns="http://www.w3.org/2000/svg">
<rect x="43" y="41" width="1138" height="908" rx="40" fill="#DB7093" stroke="black" stroke-width="2"/>
<rect x="18" y="41" width="1129" height="878" rx="40" fill="#EC7EA2" stroke="black" stroke-width="2"/>
<rect x="3" y="41" width="1115" height="840" rx="40" fill="#F17AA1" stroke="black" stroke-width="2"/>
<rect x="4" y="44" width="1077" height="810" rx="37" fill="white" stroke="#F97DA6" stroke-width="8"/>
<circle cx="105" cy="82" r="19.5" fill="#DB7093" stroke="black"/>
<circle cx="254" cy="82" r="19.5" fill="#DB7093" stroke="black"/>
<circle cx="403" cy="82" r="19.5" fill="#DB7093" stroke="black"/>
<circle cx="701" cy="82" r="19.5" fill="#DB7093" stroke="black"/>
<circle cx="850" cy="82" r="19.5" fill="#DB7093" stroke="black"/>
<circle cx="999" cy="82" r="19.5" fill="#DB7093" stroke="black"/>
<circle cx="552" cy="82" r="19.5" fill="#DB7093" stroke="black"/>
<rect x="95" y="1" width="20" height="86" rx="10" fill="#D9D9D9" stroke="black" stroke-width="2"/>
<rect x="244" y="1" width="20" height="86" rx="10" fill="#D9D9D9" stroke="black" stroke-width="2"/>
<rect x="542" y="1" width="20" height="86" rx="10" fill="#D9D9D9" stroke="black" stroke-width="2"/>
<rect x="691" y="1" width="20" height="86" rx="10" fill="#D9D9D9" stroke="black" stroke-width="2"/>
<rect x="840" y="1" width="20" height="86" rx="10" fill="#D9D9D9" stroke="black" stroke-width="2"/>
<rect x="393" y="1" width="20" height="86" rx="10" fill="#D9D9D9" stroke="black" stroke-width="2"/>
<rect x="989" y="1" width="20" height="86" rx="10" fill="#D9D9D9" stroke="black" stroke-width="2"/>
</svg>
